<?xml version="1.0" encoding="UTF-8" standalone="no"?>
<!-- Generated by Graphviz version 2.16.1 (Mon Jul  7 18:20:33 UTC 2008)
     For user: (apple) Jim Apple -->
<!-- Title: _anonymous_0 Pages: 1 -->
<svg
   xmlns:dc="http://purl.org/dc/elements/1.1/"
   xmlns:cc="http://creativecommons.org/ns#"
   xmlns:rdf="http://www.w3.org/1999/02/22-rdf-syntax-ns#"
   xmlns:svg="http://www.w3.org/2000/svg"
   xmlns="http://www.w3.org/2000/svg"
   xmlns:sodipodi="http://sodipodi.sourceforge.net/DTD/sodipodi-0.dtd"
   xmlns:inkscape="http://www.inkscape.org/namespaces/inkscape"
   width="507.31"
   height="459.73999"
   viewBox="0 0 394 332"
   id="svg3153"
   sodipodi:version="0.32"
   inkscape:version="0.46"
   sodipodi:docname="cycleIncrOffs.svg"
   inkscape:output_extension="org.inkscape.output.svg.inkscape"
   version="1.0">
  <metadata
     id="metadata3405">
    <rdf:RDF>
      <cc:Work
         rdf:about="">
        <dc:format>image/svg+xml</dc:format>
        <dc:type
           rdf:resource="http://purl.org/dc/dcmitype/StillImage" />
      </cc:Work>
    </rdf:RDF>
  </metadata>
  <defs
     id="defs3403">
    <inkscape:perspective
       sodipodi:type="inkscape:persp3d"
       inkscape:vp_x="0 : 207.5 : 1"
       inkscape:vp_y="0 : 1000 : 0"
       inkscape:vp_z="492.5 : 207.5 : 1"
       inkscape:persp3d-origin="246.25 : 138.33333 : 1"
       id="perspective3407" />
  </defs>
  <sodipodi:namedview
     inkscape:window-height="752"
     inkscape:window-width="1159"
     inkscape:pageshadow="2"
     inkscape:pageopacity="0.0"
     guidetolerance="10.0"
     gridtolerance="10.0"
     objecttolerance="10.0"
     borderopacity="1.0"
     bordercolor="#666666"
     pagecolor="#ffffff"
     id="base"
     showgrid="false"
     showguides="true"
     inkscape:zoom="0.7781764"
     inkscape:cx="188.92883"
     inkscape:cy="227.1223"
     inkscape:window-x="0"
     inkscape:window-y="25"
     inkscape:current-layer="graph0"
     borderlayer="true"
     inkscape:showpageshadow="false">
    <inkscape:grid
       type="xygrid"
       id="grid3409"
       visible="true"
       enabled="true" />
  </sodipodi:namedview>
  <g
     id="graph0"
     class="graph"
     transform="translate(4.9681372,309.84567)"
     style="display:inline">
    <title
       id="title3156">_anonymous_0</title>
    <polygon
       style="fill:#ffffff;stroke:#ffffff"
       points="-4,4 -4,-328 390,-328 390,4 -4,4 "
       id="polygon3158"
       transform="matrix(0.9999164,0,0,1.0671004,-1.4579489,28.053466)" />
<!-- 0 -->    <g
       id="node2"
       class="node"
       transform="translate(-1.0059585,7.0417093)">
      <title
         id="title3161">0</title>
      <ellipse
         style="fill:none;stroke:#000000"
         cx="182"
         cy="-306"
         rx="32.1749"
         ry="18"
         id="ellipse3163"
         sodipodi:cx="182"
         sodipodi:cy="-306"
         sodipodi:rx="32.1749"
         sodipodi:ry="18" />
      <text
         x="182"
         y="-301.89999"
         style="font-size:14px;text-anchor:middle;font-family:Times New Roman"
         id="text3165">0:〈1,0〉</text>
    </g>
<!-- 1 -->    <g
       id="node4"
       class="node"
       transform="translate(-1.0059585,7.0417093)">
      <title
         id="title3168">1</title>
      <ellipse
         style="fill:none;stroke:#000000"
         cx="132"
         cy="-234"
         rx="32.1777"
         ry="18"
         id="ellipse3170"
         sodipodi:cx="132"
         sodipodi:cy="-234"
         sodipodi:rx="32.1777"
         sodipodi:ry="18" />
      <text
         x="132"
         y="-229.89999"
         style="font-size:14px;text-anchor:middle;font-family:Times New Roman"
         id="text3172">1:〈2,1〉</text>
    </g>
<!-- 0&#45;&gt;1 -->    <g
       id="edge14"
       class="edge"
       transform="translate(-1.0059585,7.0417093)">
      <title
         id="title3175">0-&gt;1</title>
      <path
         style="fill:none;stroke:#000000"
         d="M 170,-289 C 164,-280 156,-270 150,-260"
         id="path3177" />
      <polygon
         style="fill:#000000;stroke:#000000"
         points="152.459,-257.379 144,-251 146.635,-261.262 152.459,-257.379 "
         id="polygon3179" />
    </g>
<!-- 2 -->    <g
       id="node5"
       class="node"
       transform="translate(-1.0059585,7.0417093)">
      <title
         id="title3182">2</title>
      <ellipse
         style="fill:none;stroke:#000000"
         cx="232"
         cy="-234"
         rx="32.1777"
         ry="18"
         id="ellipse3184"
         sodipodi:cx="232"
         sodipodi:cy="-234"
         sodipodi:rx="32.1777"
         sodipodi:ry="18" />
      <text
         x="232"
         y="-229.89999"
         style="font-size:14px;text-anchor:middle;font-family:Times New Roman"
         id="text3186">2:〈2,2〉</text>
    </g>
<!-- 0&#45;&gt;2 -->    <g
       id="edge41"
       class="edge"
       transform="translate(-1.0059585,7.0417093)">
      <title
         id="title3189">0-&gt;2</title>
      <path
         style="fill:none;stroke:#000000"
         d="M 194,-289 C 200,-280 208,-270 214,-260"
         id="path3191" />
      <polygon
         style="fill:#000000;stroke:#000000"
         points="217.365,-261.262 220,-251 211.541,-257.379 217.365,-261.262 "
         id="polygon3193" />
    </g>
<!-- 1&#45;&gt;2 -->    <g
       id="edge29"
       class="edge"
       transform="translate(-1.0059585,7.0417093)">
      <title
         id="title3196">1-&gt;2</title>
    </g>
<!-- 3 -->    <g
       id="node7"
       class="node"
       transform="translate(-1.0059585,7.0417093)">
      <title
         id="title3199">3</title>
      <ellipse
         style="fill:none;stroke:#000000"
         cx="32"
         cy="-162"
         rx="32.1777"
         ry="18"
         id="ellipse3201"
         sodipodi:cx="32"
         sodipodi:cy="-162"
         sodipodi:rx="32.1777"
         sodipodi:ry="18" />
      <text
         x="32"
         y="-157.89999"
         style="font-size:14px;text-anchor:middle;font-family:Times New Roman"
         id="text3203">3:〈1,0〉</text>
    </g>
<!-- 1&#45;&gt;3 -->    <g
       id="edge15"
       class="edge"
       transform="translate(-1.0059585,7.0417093)">
      <title
         id="title3206">1-&gt;3</title>
      <path
         style="fill:none;stroke:#000000"
         d="M 112,-220 C 98,-209 77,-194 60,-182"
         id="path3208" />
      <polygon
         style="fill:#000000;stroke:#000000"
         points="62.1,-179.2 52,-176 57.9,-184.8 62.1,-179.2 "
         id="polygon3210" />
    </g>
<!-- 5 -->    <g
       id="node9"
       class="node"
       transform="translate(-1.0059585,7.0417093)">
      <title
         id="title3213">5</title>
      <ellipse
         style="fill:none;stroke:#000000"
         cx="114"
         cy="-162"
         rx="32.1777"
         ry="18"
         id="ellipse3215"
         sodipodi:cx="114"
         sodipodi:cy="-162"
         sodipodi:rx="32.1777"
         sodipodi:ry="18" />
      <text
         x="114"
         y="-157.89999"
         style="font-size:14px;text-anchor:middle;font-family:Times New Roman"
         id="text3217">5:〈1,2〉</text>
    </g>
<!-- 1&#45;&gt;5 -->    <g
       id="edge17"
       class="edge"
       transform="translate(-1.0059585,7.0417093)">
      <title
         id="title3220">1-&gt;5</title>
      <path
         style="fill:none;stroke:#000000"
         d="M 127,-216 C 125,-208 123,-199 121,-190"
         id="path3222" />
      <polygon
         style="fill:#000000;stroke:#000000"
         points="124.226,-188.573 118,-180 117.521,-190.584 124.226,-188.573 "
         id="polygon3224" />
    </g>
<!-- 4 -->    <g
       id="node8"
       class="node"
       transform="translate(-1.0059585,7.0417093)">
      <title
         id="title3227">4</title>
      <ellipse
         style="fill:none;stroke:#000000"
         cx="272"
         cy="-162"
         rx="32.1749"
         ry="18"
         id="ellipse3229"
         sodipodi:cx="272"
         sodipodi:cy="-162"
         sodipodi:rx="32.1749"
         sodipodi:ry="18" />
      <text
         x="272"
         y="-157.89999"
         style="font-size:14px;text-anchor:middle;font-family:Times New Roman"
         id="text3231">4:〈1,1〉</text>
    </g>
<!-- 2&#45;&gt;4 -->    <g
       id="edge42"
       class="edge"
       transform="translate(-1.0059585,7.0417093)">
      <title
         id="title3234">2-&gt;4</title>
      <path
         style="fill:none;stroke:#000000"
         d="M 242,-217 C 247,-208 252,-197 258,-188"
         id="path3236" />
      <polygon
         style="fill:#000000;stroke:#000000"
         points="261.203,-189.441 263,-179 255.084,-186.042 261.203,-189.441 "
         id="polygon3238" />
    </g>
<!-- 6 -->    <g
       id="node10"
       class="node"
       transform="translate(-1.0059585,7.0417093)">
      <title
         id="title3241">6</title>
      <ellipse
         style="fill:none;stroke:#000000"
         cx="354"
         cy="-162"
         rx="32.1749"
         ry="18"
         id="ellipse3243"
         sodipodi:cx="354"
         sodipodi:cy="-162"
         sodipodi:rx="32.1749"
         sodipodi:ry="18" />
      <text
         x="354"
         y="-157.89999"
         style="font-size:14px;text-anchor:middle;font-family:Times New Roman"
         id="text3245">6:〈1,0〉</text>
    </g>
<!-- 2&#45;&gt;6 -->    <g
       id="edge47"
       class="edge"
       transform="translate(-1.0059585,7.0417093)">
      <title
         id="title3248">2-&gt;6</title>
      <path
         style="fill:none;stroke:#000000"
         d="M 254,-221 C 273,-210 301,-193 323,-180"
         id="path3250" />
      <polygon
         style="fill:#000000;stroke:#000000"
         points="324.958,-182.916 332,-175 321.559,-176.797 324.958,-182.916 "
         id="polygon3252" />
    </g>
<!-- 3&#45;&gt;0 -->    <g
       id="edge8"
       class="edge"
       transform="translate(-1.0059585,7.0417093)">
      <title
         id="title3255">3-&gt;0</title>
      <path
         style="fill:none;stroke:#000000;stroke-dasharray:1, 5"
         d="M 41,-179 C 51,-199 69,-230 91,-252 C 107,-267 129,-281 148,-290"
         id="path3257" />
      <polygon
         style="fill:#000000;stroke:#000000"
         points="146.559,-293.203 157,-295 149.958,-287.084 146.559,-293.203 "
         id="polygon3259" />
    </g>
<!-- 8 -->    <g
       id="node12"
       class="node"
       transform="translate(-1.0059585,7.0417093)">
      <title
         id="title3262">8</title>
      <ellipse
         style="fill:none;stroke:#000000"
         cx="236"
         cy="-90"
         rx="32.1777"
         ry="18"
         id="ellipse3264"
         sodipodi:cx="236"
         sodipodi:cy="-90"
         sodipodi:rx="32.1777"
         sodipodi:ry="18" />
      <text
         x="236"
         y="-85.900002"
         style="font-size:14px;text-anchor:middle;font-family:Times New Roman"
         id="text3266">8:〈2,2〉</text>
    </g>
<!-- 4&#45;&gt;8 -->    <g
       id="edge43"
       class="edge"
       transform="translate(-1.0059585,7.0417093)">
      <title
         id="title3269">4-&gt;8</title>
      <path
         style="fill:none;stroke:#000000"
         d="M 263,-145 C 259,-136 254,-126 249,-116"
         id="path3271" />
      <polygon
         style="fill:#000000;stroke:#000000"
         points="252.26,-114.717 245,-107 245.863,-117.56 252.26,-114.717 "
         id="polygon3273" />
    </g>
<!-- 12 -->    <g
       id="node15"
       class="node"
       transform="translate(-1.0059585,7.0417093)">
      <title
         id="title3276">12</title>
      <ellipse
         style="fill:none;stroke:#000000"
         cx="321"
         cy="-90"
         rx="35.175201"
         ry="18"
         id="ellipse3278"
         sodipodi:cx="321"
         sodipodi:cy="-90"
         sodipodi:rx="35.175201"
         sodipodi:ry="18" />
      <text
         x="321"
         y="-85.900002"
         style="font-size:14px;text-anchor:middle;font-family:Times New Roman"
         id="text3280">12:〈2,0〉</text>
    </g>
<!-- 4&#45;&gt;12 -->    <g
       id="edge45"
       class="edge"
       transform="translate(-1.0059585,7.0417093)">
      <title
         id="title3283">4-&gt;12</title>
      <path
         style="fill:none;stroke:#000000"
         d="M 284,-145 C 290,-137 297,-126 304,-116"
         id="path3285" />
      <polygon
         style="fill:#000000;stroke:#000000"
         points="307.203,-117.441 309,-107 301.084,-114.042 307.203,-117.441 "
         id="polygon3287" />
    </g>
<!-- 5&#45;&gt;4 -->    <g
       id="edge31"
       class="edge"
       transform="translate(-1.0059585,7.0417093)">
      <title
         id="title3290">5-&gt;4</title>
    </g>
<!-- 9 -->    <g
       id="node13"
       class="node"
       transform="translate(-1.0059585,7.0417093)">
      <title
         id="title3293">9</title>
      <ellipse
         style="fill:none;stroke:#000000"
         cx="66"
         cy="-90"
         rx="32.1749"
         ry="18"
         id="ellipse3295"
         sodipodi:cx="66"
         sodipodi:cy="-90"
         sodipodi:rx="32.1749"
         sodipodi:ry="18" />
      <text
         x="66"
         y="-85.900002"
         style="font-size:14px;text-anchor:middle;font-family:Times New Roman"
         id="text3297">9:〈2,0〉</text>
    </g>
<!-- 5&#45;&gt;9 -->    <g
       id="edge18"
       class="edge"
       transform="translate(-1.0059585,7.0417093)">
      <title
         id="title3300">5-&gt;9</title>
      <path
         style="fill:none;stroke:#000000"
         d="M 103,-145 C 97,-136 89,-126 83,-116"
         id="path3302" />
      <polygon
         style="fill:#000000;stroke:#000000"
         points="85.4592,-113.379 77,-107 79.6349,-117.262 85.4592,-113.379 "
         id="polygon3304" />
    </g>
<!-- 13 -->    <g
       id="node14"
       class="node"
       transform="translate(-1.0059585,7.0417093)">
      <title
         id="title3307">13</title>
      <ellipse
         style="fill:none;stroke:#000000"
         cx="151"
         cy="-90"
         rx="35.1777"
         ry="18"
         id="ellipse3309"
         sodipodi:cx="151"
         sodipodi:cy="-90"
         sodipodi:rx="35.1777"
         sodipodi:ry="18" />
      <text
         x="151"
         y="-85.900002"
         style="font-size:14px;text-anchor:middle;font-family:Times New Roman"
         id="text3311">13:〈2,1〉</text>
    </g>
<!-- 5&#45;&gt;13 -->    <g
       id="edge23"
       class="edge"
       transform="translate(-1.0059585,7.0417093)">
      <title
         id="title3314">5-&gt;13</title>
      <path
         style="fill:none;stroke:#000000"
         d="M 123,-145 C 128,-136 133,-126 137,-116"
         id="path3316" />
      <polygon
         style="fill:#000000;stroke:#000000"
         points="140.203,-117.441 142,-107 134.084,-114.042 140.203,-117.441 "
         id="polygon3318" />
    </g>
<!-- 6&#45;&gt;0 -->    <g
       id="edge52"
       class="edge"
       transform="translate(-1.0059585,7.0417093)">
      <title
         id="title3321">6-&gt;0</title>
      <path
         style="fill:none;stroke:#000000;stroke-dasharray:1, 5"
         d="M 341,-179 C 326,-198 300,-229 273,-252 C 255,-266 233,-280 215,-289"
         id="path3323" />
      <polygon
         style="fill:#000000;stroke:#000000"
         points="213.042,-286.084 206,-294 216.441,-292.203 213.042,-286.084 "
         id="polygon3325" />
    </g>
<!-- 8&#45;&gt;2 -->    <g
       id="edge10"
       class="edge"
       transform="translate(-1.0059585,7.0417093)">
      <title
         id="title3328">8-&gt;2</title>
      <path
         style="fill:none;stroke:#000000;stroke-dasharray:1, 5"
         d="M 234,-108 C 233,-118 232,-132 231,-144 C 230,-164 231,-188 231,-206"
         id="path3330" />
      <polygon
         style="fill:#000000;stroke:#000000"
         points="227.5,-206 231,-216 234.5,-206 227.5,-206 "
         id="polygon3332" />
    </g>
<!-- 8&#45;&gt;12 -->    <g
       id="edge35"
       class="edge"
       transform="translate(-1.0059585,7.0417093)">
      <title
         id="title3335">8-&gt;12</title>
    </g>
<!-- 9&#45;&gt;13 -->    <g
       id="edge37"
       class="edge"
       transform="translate(-1.0059585,7.0417093)">
      <title
         id="title3338">9-&gt;13</title>
    </g>
<!-- 17 -->    <g
       id="node17"
       class="node"
       transform="translate(-1.0059585,7.0417093)">
      <title
         id="title3341">17</title>
      <ellipse
         style="fill:none;stroke:#000000"
         cx="36"
         cy="-18"
         rx="35.175201"
         ry="18"
         id="ellipse3343"
         sodipodi:cx="36"
         sodipodi:cy="-18"
         sodipodi:rx="35.175201"
         sodipodi:ry="18" />
      <text
         x="36"
         y="-13.9"
         style="font-size:14px;text-anchor:middle;font-family:Times New Roman"
         id="text3345">17:〈1,2〉</text>
    </g>
<!-- 9&#45;&gt;17 -->    <g
       id="edge19"
       class="edge"
       transform="translate(-1.0059585,7.0417093)">
      <title
         id="title3348">9-&gt;17</title>
      <path
         style="fill:none;stroke:#000000"
         d="M 59,-72 C 55,-64 51,-54 47,-45"
         id="path3350" />
      <polygon
         style="fill:#000000;stroke:#000000"
         points="50.2598,-43.7166 43,-36 43.8631,-46.5596 50.2598,-43.7166 "
         id="polygon3352" />
    </g>
<!-- 23 -->    <g
       id="node18"
       class="node"
       transform="translate(-166.00596,7.0417093)">
      <title
         id="title3355">23</title>
      <ellipse
         style="fill:none;stroke:#000000"
         cx="321"
         cy="-18"
         rx="35.1777"
         ry="18"
         id="ellipse3357"
         sodipodi:cx="321"
         sodipodi:cy="-18"
         sodipodi:rx="35.1777"
         sodipodi:ry="18" />
      <text
         x="321"
         y="-13.9"
         style="font-size:14px;text-anchor:middle;font-family:Times New Roman"
         id="text3359">23:〈1,1〉</text>
    </g>
<!-- 9&#45;&gt;23 -->    <g
       id="edge21"
       class="edge"
       transform="translate(-1.0059585,7.0417093)">
      <title
         id="title3362">9-&gt;23</title>
      <path
         style="fill:none;stroke:#000000"
         d="M 91,-78 C 92,-76 100,-68 112,-56 C 124,-44 132,-32 132,-32"
         id="path3364"
         sodipodi:nodetypes="ccc" />
      <polygon
         style="fill:#000000;stroke:#000000"
         points="278.881,-29.3933 288,-24 277.508,-22.5292 278.881,-29.3933 "
         id="polygon3366"
         transform="matrix(0.7071068,0.7071068,-0.7071068,0.7071068,-88.617322,-218.6762)" />
    </g>
<!-- 13&#45;&gt;1 -->    <g
       id="edge26"
       class="edge"
       transform="translate(-1.0059585,7.0417093)">
      <title
         id="title3369">13-&gt;1</title>
      <path
         style="fill:none;stroke:#000000;stroke-dasharray:1, 5"
         d="M 155,-108 C 158,-126 161,-155 155,-180 C 153,-189 150,-198 146,-207"
         id="path3371" />
      <polygon
         style="fill:#000000;stroke:#000000"
         points="142.863,-205.44 142,-216 149.26,-208.283 142.863,-205.44 "
         id="polygon3373" />
    </g>
<!-- 13&#45;&gt;8 -->    <g
       id="edge33"
       class="edge"
       transform="translate(-1.0059585,7.0417093)">
      <title
         id="title3376">13-&gt;8</title>
    </g>
<!-- 12&#45;&gt;9 -->    <g
       id="edge50"
       class="edge"
       transform="translate(-1.0059585,7.0417093)">
      <title
         id="title3379">12-&gt;9</title>
      <path
         style="fill:none;stroke:#000000;stroke-dasharray:1, 5"
         d="M 320,-72 C 320,-72 264,20 168,20 C 72,20 80,-64 80,-64"
         id="path3381"
         sodipodi:nodetypes="czc" />
      <polygon
         style="fill:#000000;stroke:#000000"
         points="93.1,-109.2 83,-106 88.9,-114.8 93.1,-109.2 "
         id="polygon3383"
         transform="matrix(-0.5555702,0.8314697,-0.8314697,-0.5555702,37.181584,-201.10369)" />
    </g>
<!-- 12&#45;&gt;23 -->    <g
       id="edge39"
       class="edge"
       transform="translate(-1.0059585,7.0417093)">
      <title
         id="title3386">12-&gt;23</title>
    </g>
<!-- 17&#45;&gt;5 -->    <g
       id="edge12"
       class="edge"
       transform="translate(-1.0059585,7.0417093)">
      <title
         id="title3389">17-&gt;5</title>
      <path
         style="fill:none;stroke:#000000;stroke-dasharray:1, 5"
         d="M 28,-36 C 21,-54 13,-85 25,-108 C 32,-119 58,-135 80,-146"
         id="path3391" />
      <polygon
         style="fill:#000000;stroke:#000000"
         points="78.4404,-149.137 89,-150 81.2834,-142.74 78.4404,-149.137 "
         id="polygon3393" />
    </g>
<!-- 23&#45;&gt;4 -->    <g
       id="edge54"
       class="edge"
       transform="translate(-1.0059585,7.0417093)">
      <title
         id="title3396">23-&gt;4</title>
      <path
         style="fill:none;stroke:#000000;stroke-dasharray:1, 5"
         d="M 189.84317,-24 C 192,-24 240,-32 264,-56 C 288,-80 276,-136 276,-136"
         id="path3398"
         sodipodi:nodetypes="czc" />
      <polygon
         style="fill:#000000;stroke:#000000"
         points="304.717,-143.74 297,-151 307.56,-150.137 304.717,-143.74 "
         id="polygon3400"
         transform="matrix(0.5555702,0.8314697,-0.8314697,0.5555702,-15.976216,-308.32245)" />
    </g>
  </g>
</svg>
